<?xml version="1.0" standalone="no"?>
<!DOCTYPE svg PUBLIC "-//W3C//DTD SVG 20010904//EN"
 "http://www.w3.org/TR/2001/REC-SVG-20010904/DTD/svg10.dtd">
<svg version="1.0" xmlns="http://www.w3.org/2000/svg"
 width="1290.000000pt" height="1290.000000pt" viewBox="0 0 1290.000000 1290.000000"
 preserveAspectRatio="xMidYMid meet">
<metadata>
Created by potrace 1.14, written by Peter Selinger 2001-2017
</metadata>
<g transform="translate(0.000000,1290.000000) scale(0.100000,-0.100000)"
fill="#000000" stroke="none">
<path d="M8775 10236 c0 -1466 3 -2667 6 -2671 3 -3 21 12 39 32 80 90 195
218 200 223 8 8 163 181 201 224 19 22 41 47 49 55 8 9 109 122 225 251 115
129 226 253 246 275 21 22 47 52 58 67 l21 26 0 1484 0 1483 -33 35 c-18 19
-70 80 -116 135 -46 55 -89 105 -95 110 -6 6 -29 32 -51 59 -22 28 -51 61 -64
75 -13 14 -40 46 -60 71 -20 25 -39 47 -42 50 -5 4 -454 529 -504 589 -11 13
-33 39 -50 58 l-30 34 0 -2665z"/>
<path d="M4020 12778 c-52 -61 -100 -116 -105 -122 -6 -6 -48 -56 -95 -111
-47 -55 -89 -105 -95 -111 -5 -6 -30 -35 -55 -64 -25 -29 -50 -58 -55 -64 -6
-6 -87 -101 -180 -211 -93 -110 -174 -205 -180 -211 -17 -18 -101 -116 -139
-162 l-36 -44 0 -1480 0 -1480 21 -26 c11 -15 39 -47 62 -72 23 -25 98 -108
167 -185 69 -77 129 -145 135 -151 5 -6 42 -46 80 -90 39 -43 77 -85 85 -94 8
-9 44 -49 80 -90 36 -41 68 -77 71 -80 3 -3 68 -75 144 -160 168 -188 189
-210 195 -210 3 0 5 1199 5 2665 0 1466 -2 2665 -5 2665 -3 0 -48 -50 -100
-112z"/>
<path d="M10463 9701 l0 -1220 -84 -93 c-137 -152 -150 -166 -299 -333 -79
-88 -178 -198 -220 -245 -42 -47 -101 -112 -130 -145 -29 -33 -56 -62 -59 -65
-3 -3 -42 -45 -86 -95 -74 -84 -129 -145 -165 -184 -8 -10 -33 -37 -54 -61
-21 -25 -60 -68 -85 -95 -25 -28 -82 -91 -126 -140 -70 -79 -123 -137 -175
-194 -8 -9 -53 -59 -99 -111 -46 -52 -121 -135 -165 -184 -125 -136 -122 -121
-41 -213 38 -43 74 -83 79 -88 6 -6 36 -39 66 -75 30 -36 57 -67 60 -70 3 -3
48 -54 100 -115 52 -60 97 -112 100 -115 11 -11 210 -239 270 -310 35 -41 67
-77 70 -80 3 -3 34 -39 70 -80 36 -41 67 -77 70 -80 5 -5 256 -293 296 -340
12 -14 57 -66 100 -115 44 -50 104 -119 134 -154 30 -35 64 -73 75 -85 42 -47
83 -95 175 -201 52 -60 100 -116 107 -123 7 -7 13 -23 14 -35 0 -12 1 -518 1
-1124 1 -1179 -1 -1115 43 -1068 6 5 26 23 45 39 19 15 53 45 75 65 22 20 74
65 115 101 41 36 77 67 80 70 3 3 46 41 95 84 50 43 106 93 125 110 19 17 57
51 85 75 158 139 191 168 214 190 14 13 45 39 69 58 l42 35 0 930 0 931 -107
121 c-60 66 -121 136 -138 155 -16 19 -35 39 -40 45 -6 6 -46 52 -90 101 -43
50 -91 104 -106 120 -16 17 -36 39 -46 51 -10 12 -47 54 -83 95 -36 40 -87 98
-114 129 -26 30 -56 62 -65 70 -9 9 -43 47 -76 85 -68 80 -110 127 -175 200
-25 27 -64 71 -85 96 -22 25 -109 123 -192 217 l-153 171 86 98 c48 54 101
114 118 133 18 19 88 98 155 175 68 77 149 169 181 205 57 65 568 643 684 774
33 39 81 93 106 121 25 28 66 75 93 105 l47 53 0 867 0 867 -42 49 c-24 27
-47 54 -53 60 -5 6 -37 42 -71 80 -217 246 -506 572 -539 608 -9 10 -67 76
-190 215 -16 18 -44 49 -61 67 l-31 34 0 -1219z"/>
<path d="M2385 10863 c-46 -53 -44 -51 -110 -124 -51 -56 -69 -76 -190 -214
-38 -44 -72 -82 -75 -85 -3 -3 -34 -39 -70 -80 -36 -41 -68 -77 -71 -80 -3 -3
-48 -52 -99 -110 -51 -58 -121 -136 -155 -175 -34 -38 -85 -97 -114 -129 l-51
-59 0 -867 0 -866 47 -54 c150 -169 304 -344 363 -410 37 -41 82 -93 101 -115
19 -22 39 -45 44 -51 6 -6 35 -39 65 -74 30 -34 62 -70 71 -79 8 -9 98 -110
199 -226 102 -115 187 -212 190 -215 3 -3 39 -43 80 -90 40 -47 76 -87 79 -90
4 -3 51 -57 106 -120 55 -63 106 -120 114 -126 11 -8 4 -21 -34 -65 -26 -30
-75 -85 -109 -123 -34 -39 -101 -115 -151 -171 -49 -55 -117 -132 -150 -169
-33 -38 -67 -76 -75 -85 -9 -9 -47 -52 -85 -96 -39 -44 -77 -87 -85 -95 -8 -8
-44 -49 -80 -90 -36 -41 -72 -81 -80 -90 -14 -16 -124 -140 -145 -164 -5 -6
-30 -34 -55 -61 -25 -28 -73 -82 -106 -120 -34 -39 -116 -131 -183 -205 l-120
-135 -1 -930 0 -930 173 -152 c282 -248 378 -333 452 -398 39 -35 86 -76 105
-91 19 -16 40 -34 45 -41 6 -6 51 -46 100 -89 50 -42 92 -81 93 -86 2 -4 7 -8
11 -8 4 0 7 496 7 1103 -1 606 2 1114 6 1130 3 15 13 33 20 40 7 8 36 40 63
72 28 32 66 76 86 99 20 23 134 154 254 291 204 234 316 363 340 389 6 6 53
60 105 121 52 60 100 115 105 121 18 19 119 135 235 269 124 143 124 143 430
494 246 281 233 236 109 372 -78 87 -319 354 -443 493 -39 43 -76 84 -81 90
-6 6 -66 74 -135 151 -69 77 -134 149 -145 161 -17 18 -114 126 -165 184 -14
16 -117 131 -165 184 -11 13 -54 60 -96 107 -41 46 -100 111 -129 144 -30 33
-59 65 -64 71 -6 6 -40 44 -76 84 -36 41 -69 78 -75 84 -5 6 -48 53 -94 104
l-85 94 0 1214 c0 668 -2 1214 -5 1214 -3 0 -24 -21 -46 -47z"/>
<path d="M6024 9903 c-43 -49 -85 -95 -94 -104 -8 -9 -44 -49 -80 -90 -36 -41
-88 -99 -116 -129 -27 -30 -110 -122 -184 -205 -73 -82 -168 -188 -210 -235
-43 -47 -122 -136 -177 -198 l-100 -113 0 -929 c0 -512 3 -931 6 -931 15 -3
1017 -5 1027 -2 7 3 10 461 10 1513 0 831 -1 1510 -2 1510 -1 0 -37 -39 -80
-87z"/>
<path d="M6794 8479 l1 -1514 510 -1 c281 0 515 1 521 3 7 3 10 287 10 933
l-1 930 -72 83 c-40 45 -85 96 -100 113 -76 83 -174 192 -192 213 -11 12 -51
57 -88 99 -37 41 -75 83 -83 92 -8 9 -44 50 -80 90 -36 40 -72 81 -80 90 -8 9
-35 40 -60 67 -25 27 -74 82 -110 122 -36 41 -90 101 -121 134 l-55 60 0
-1514z"/>
<path d="M4974 6244 c-32 -37 -66 -75 -75 -86 -19 -21 -138 -155 -154 -172 -6
-6 -44 -49 -85 -96 -41 -47 -77 -87 -80 -90 -9 -9 -206 -229 -247 -276 -15
-18 -52 -59 -168 -189 -11 -12 -47 -53 -80 -90 -33 -37 -71 -80 -85 -95 -14
-15 -52 -58 -85 -95 -33 -38 -69 -79 -80 -91 -11 -12 -45 -50 -75 -85 -30 -34
-64 -72 -76 -83 -11 -12 -54 -59 -95 -106 -41 -47 -78 -90 -84 -96 -13 -14
-135 -151 -155 -174 -48 -54 -149 -168 -177 -197 -57 -61 -93 -106 -94 -117
-1 -6 -2 -733 -3 -1615 -1 -1057 2 -1608 9 -1617 9 -11 155 -135 380 -323 43
-36 97 -82 120 -102 22 -19 96 -82 165 -140 69 -57 127 -106 130 -109 3 -3 48
-41 100 -84 52 -44 102 -86 111 -93 14 -12 15 160 15 1852 -1 1852 -1 1866 19
1888 11 13 63 70 115 127 52 58 111 123 131 145 75 84 163 181 178 196 9 9 44
47 77 85 34 38 72 81 85 95 13 14 62 68 109 119 47 51 94 104 106 117 12 12
52 57 90 100 38 42 74 81 79 88 6 6 35 38 65 70 30 33 91 100 135 149 44 49
95 105 114 125 18 20 47 51 63 70 l30 34 947 1 c628 1 949 -2 956 -9 6 -6 50
-55 99 -110 49 -55 96 -107 105 -115 9 -9 72 -78 141 -155 68 -77 138 -154
155 -171 16 -17 62 -66 100 -110 39 -43 81 -89 94 -103 12 -14 49 -55 81 -91
32 -36 69 -77 81 -91 13 -14 60 -65 104 -114 44 -49 89 -98 100 -109 24 -25
176 -194 226 -250 19 -21 46 -51 60 -65 14 -14 30 -35 35 -46 6 -12 9 -729 9
-1877 l-1 -1856 25 20 c14 11 163 135 330 276 167 142 379 320 470 397 91 77
175 148 186 157 19 18 19 43 20 1631 l1 1612 -54 65 c-44 52 -142 163 -207
234 -6 6 -102 115 -214 241 -112 127 -209 235 -215 240 -6 6 -42 46 -81 90
-38 44 -74 85 -80 91 -12 13 -133 149 -155 174 -19 22 -142 160 -155 174 -5 6
-46 52 -91 101 -74 82 -98 110 -151 171 -10 12 -52 58 -93 104 -41 46 -83 92
-93 104 -10 12 -45 50 -77 86 -32 36 -68 76 -80 90 -12 14 -36 41 -53 60 -18
19 -61 68 -96 108 l-63 72 -1417 0 -1418 0 -59 -66z"/>
</g>
</svg>
